# xmcd
#
# Track frame offsets: 
#        150
#        18790
#        45064
#        61491
#        94232
#        122430
#        148881
#        162511
#        189222
#        217373
#        241229
#        264745
#        279395
#        302612
#        334174
#
# Disc length: 4791 seconds
#
# Revision: 1
# Processed by: cddbd v1.5.2PL0 Copyright (c) Steve Scherf et al.
# Submitted via: ExactAudioCopyFreeDBPlugin 1.0
#
DISCID=d412b50f
DTITLE=Various Artist - Volume 18 CD2
DYEAR=2000
DGENRE=90's
TTITLE0=Backstreet Boys - Show Me The Meaning Of Being Lonely (Soul So
TTITLE0=lution Mix Show Version)
TTITLE1=Lady Violet - Inside To Outside (Extended Club Mix)
TTITLE2=Britney Spears - Born To Make You Happy (Bonus Remix)
TTITLE3=DJ Jean - Love Come Home (Vocal Mix)
TTITLE4=Ilana - Hey (Extravazana Extended)
TTITLE5=Malik From The Outhere Brothers - You Don't Know Malik ("Big B
TTITLE5=eat Boutique" Mix)
TTITLE6=Soulsearcher - Do It To Me Again (Artful Dodger Vocal Mix Edit
TTITLE6=)
TTITLE7=Baby Bumps - I Got This Feeling (G-Club Classic Remix Edit)
TTITLE8=The Jungle Groover feat. Mr. Z - Tarzan Boy 2000 (Extended Mix
TTITLE8=)
TTITLE9=The Soundlovers - Walking (All The DJ's Mix)
TTITLE10=Lutricia McNeal - Fly Away (C&N Extended Mix)
TTITLE11=Gaya' - I Keep On Dreaming (DX Extended Mix Edit)
TTITLE12=A.C. One - Sing A Song Now Now (A.C. One Version)
TTITLE13=Web - Lovin' Times (Extended Mix)
TTITLE14=E-Magic feat. Nancy - Stop (Dance Mix)
EXTD=YEAR: 2000
EXTT0=
EXTT1=
EXTT2=
EXTT3=
EXTT4=
EXTT5=
EXTT6=
EXTT7=
EXTT8=
EXTT9=
EXTT10=
EXTT11=
EXTT12=
EXTT13=
EXTT14=
PLAYORDER=
